/* XPM */
static char *result[] = {
/* columns rows colors chars-per-pixel */
"32 32 5 1 ",
"  c #442434",
". c #854C30",
"X c #D27D2C",
"o c #DAD45E",
"O c None",
/* pixels */
"OOOOOOOOOOOOOOOOOOOOOOOOOOOOOOOO",
"OOOOOOOOOOOOOOOOOOOOOOOOOOOOOOOO",
"OOOOOOOOOOOOOOOOOOOOOOOOOOOOOOOO",
"OOOOOOOOOOOOOOOOOOOOOOOOOOOOOOOO",
"OOOOOOOOOOOOOOOOOOOOOOOOOOOOOOOO",
"OOOOOOOOOOOOOOOOOOOOOOOOOOOOOOOO",
"OOOOOOOOOOOOOOOOOOOOOOOOOOOOOOOO",
"OOOOOOOOOOOOOOOOOOOOOOOOOOOOOOOO",
"OOOOOO                    OOOOOO",
"OOOOOO                    OOOOOO",
"OOOO  XXXX..............XX  OOOO",
"OOOO  XXXX..............XX  OOOO",
"OO  XX....................XX  OO",
"OO  XX....................XX  OO",
"OO  XX....XXXXXXXXXXXX....XX  OO",
"OO  XX....XXXXXXXXXXXX....XX  OO",
"OO  XXXXXXXXXXXXXXXXXXXXXXXX  OO",
"OO  XXXXXXXXXXXXXXXXXXXXXXXX  OO",
"OO  XX..XXXXXXXXXXXXXXXX..XX  OO",
"OO  XX..XXXXXXXXXXXXXXXX..XX  OO",
"OO  XXooooooooooooooooooooXX  OO",
"OO  XXooooooooooooooooooooXX  OO",
"OO            ....            OO",
"OO            ....            OO",
"OO  ........  oooo  ........  OO",
"OO  ........  oooo  ........  OO",
"OO  ..XXXXXXXX    XXXXXXXX..  OO",
"OO  ..XXXXXXXX    XXXXXXXX..  OO",
"OO  XXXXXXXXXXXXXXXXXXXXXXXX  OO",
"OO  XXXXXXXXXXXXXXXXXXXXXXXX  OO",
"OOOO                        OOOO",
"OOOO                        OOOO"
};
