/* XPM */
static char *result[] = {
/* columns rows colors chars-per-pixel */
"32 32 7 1 ",
"  c #442434",
". c #4E4A4E",
"X c #854C30",
"o c #D27D2C",
"O c #DAD45E",
"+ c #D2AA99",
"@ c None",
/* pixels */
"@@@@XXXXXXXXXXXXXXXXXXXXXXXX@@@@",
"@@@@XXXXXXXXXXXXXXXXXXXXXXXX@@@@",
"@@XXooooooooooooooooooooooooXX@@",
"@@XXooooooooooooooooooooooooXX@@",
"XXoooo++++++++++++++++++++ooooXX",
"XXoooo++++++++++++++++++++ooooXX",
"  oo++XXXXXX..XXXX..XXXXXX++oo  ",
"  oo++XXXXXX..XXXX..XXXXXX++oo  ",
"  ooXX..XXXX..XXXX..XXXX..XXoo  ",
"  ooXX..XXXX..XXXX..XXXX..XXoo  ",
"  XXXX..XXXX..XXXX..XXXX..XXXX  ",
"  XXXX..XXXX..XXXX..XXXX..XXXX  ",
"  XXXX..XXXX..XXXX..XXXX..XXXX  ",
"  XXXX..XXXX..XXXX..XXXX..XXXX  ",
"  XXXX..XXXX..XXXX..XXXX..XXXX  ",
"  XXXX..XXXX..XXXX..XXXX..XXXX  ",
"  XXXX..XXXX..XXXX..XXXX..XXXX  ",
"  XXXX..XXXX..XXXX..XXXX..XXXX  ",
"  XXXX..XXXX..XXXX..XXXXOOOOXX  ",
"  XXXX..XXXX..XXXX..XXXXOOOOXX  ",
"  XXXX..XXXX..XXXX..XXXXooooXX  ",
"  XXXX..XXXX..XXXX..XXXXooooXX  ",
"  XXXX..XXXX..XXXX..XXXX    XX  ",
"  XXXX..XXXX..XXXX..XXXX    XX  ",
"  XXXX  XXXX..XXXX..XXXX  XXXX  ",
"  XXXX  XXXX..XXXX..XXXX  XXXX  ",
"  XXXX  XXXX..XXXX  XXXX  XXXX  ",
"  XXXX  XXXX..XXXX  XXXX  XXXX  ",
"  XXXX  XXXX  XXXX  XXXX  XXXX  ",
"  XXXX  XXXX  XXXX  XXXX  XXXX  ",
"                                ",
"                                "
};
