/* XPM */
static char *result[] = {
/* columns rows colors chars-per-pixel */
"32 32 12 1 ",
"  c #140C1C",
". c #442434",
"X c #30346D",
"o c #757161",
"O c #854C30",
"+ c #D27D2C",
"@ c #D04648",
"# c #DAD45E",
"$ c #597DCE",
"% c #D2AA99",
"& c #DEEED6",
"* c None",
/* pixels */
"**********            **********",
"**********            **********",
"********  OO++++++++OO  ********",
"********  OO++++++++OO  ********",
"******  OO++OO++##OOOOOO  ******",
"******  OO++OO++##OOOOOO  ******",
"******  ##OO####++..++OO  ******",
"******  ##OO####++..++OO  ******",
"******  OO++..OO..++..OO  ******",
"******  OO++..OO..++..OO  ******",
"******  OO..  ####  ++..  ******",
"******  OO..  ####  ++..  ******",
"********  ##  &&&&  ##  ********",
"********  ##  &&&&  ##  ********",
"**********  %%%%%%%%  **********",
"**********  %%%%%%%%  **********",
"********  $$OO++++OO$$  ********",
"********  $$OO++++OO$$  ********",
"******  $$XX$$$$$$$$XX$$  ******",
"******  $$XX$$$$$$$$XX$$  ******",
"******  %%  $$$$$$$$  %%  ******",
"******  %%  $$$$$$$$  %%  ******",
"********    @@....@@    ********",
"********    @@....@@    ********",
"**********  @@....@@  **********",
"**********  @@....@@  **********",
"******oooo  ++....++  oooo******",
"******oooo  ++....++  oooo******",
"******oooooo        oooooo******",
"******oooooo        oooooo******",
"********oooooooooooooooo********",
"********oooooooooooooooo********"
};
