/* XPM */
static char *_99f09c1671041e1e1921791ad341328u1lj1GVFK7JrG2Uu[] = {
/* columns rows colors chars-per-pixel */
"32 32 3 1 ",
"  c #6DAA2C",
". c #346524",
"X c white",
/* pixels */
"      ..                        ",
"      ..                        ",
"..    ..                        ",
"..    ..                        ",
"  ..  ..                        ",
"  ..  ..                        ",
"                                ",
"                                ",
"                          ..    ",
"                          ..    ",
"                          ..  ..",
"                          ..  ..",
"                                ",
"                                ",
"        ..                      ",
"        ..                      ",
"    ..  ..                      ",
"    ..  ..                      ",
"                                ",
"                                ",
"                                ",
"                                ",
"                                ",
"                                ",
"                                ",
"                                ",
"                  ..            ",
"                  ..            ",
"              ..  ..    ..      ",
"              ..  ..    ..      ",
"              ..  ..  ..        ",
"              ..  ..  ..        "
};
