/* XPM */
static char *_480914bbd1b4840cf73c72c92574b1aV2HTtjepyKD3jFUR[] = {
/* columns rows colors chars-per-pixel */
"32 32 5 1 ",
"  c #8595A1",
". c #6DC2CA",
"X c #757161",
"o c #4E4A4E",
"O c white",
/* pixels */
"    ..      ........      ......",
"    ..      ........      ......",
"  XX    XX            XX        ",
"  XX    XX            XX        ",
"  XX    XX            XX        ",
"  XX    XX            XX        ",
"  XXXXXXXXXXXXXXXXXXXXXXXXXXXX  ",
"  XXXXXXXXXXXXXXXXXXXXXXXXXXXX  ",
"XX          XX        XX    XXXX",
"XX          XX        XX    XXXX",
"XX          XX        XX        ",
"XX          XX        XX        ",
"XX          XX        XX        ",
"XX          XX        XX        ",
"XXXXXXXXXXXXXX        XXXXXXXXXX",
"XXXXXXXXXXXXXX        XXXXXXXXXX",
"oo    XX    XXXXXXXXXXXX      oo",
"oo    XX    XXXXXXXXXXXX      oo",
"oo    XX              XX      oo",
"oo    XX              XX      oo",
"oo    XX              XX      oo",
"oo    XX              XX      oo",
"oo    XX              XX      oo",
"oo    XX              XX      oo",
"ooooXXXXXXXXXXXXXXXXXXXXXXoooooo",
"ooooXXXXXXXXXXXXXXXXXXXXXXoooooo",
"oo          XX            XX  oo",
"oo          XX            XX  oo",
"oo          XX            XX  oo",
"oo          XX            XX  oo",
"ooooooXXXXXXXX            XX  oo",
"ooooooXXXXXXXX            XX  oo"
};
